<svg width="20" height="14" viewBox="0 0 20 14" fill="none" xmlns="http://www.w3.org/2000/svg">
<path d="M16.125 5.36665C15.8451 3.94808 15.0813 2.6707 13.9642 1.75268C12.8471 0.834674 11.4459 0.332986 10 0.333313C7.59167 0.333313 5.5 1.69998 4.45833 3.69998C3.23353 3.83234 2.10084 4.41265 1.27791 5.32941C0.454976 6.24617 -0.000143085 7.43471 3.3744e-08 8.66665C3.3744e-08 11.425 2.24167 13.6666 5 13.6666H15.8333C18.1333 13.6666 20 11.8 20 9.49998C20 7.29998 18.2917 5.51665 16.125 5.36665ZM15.8333 12H5C3.15833 12 1.66667 10.5083 1.66667 8.66665C1.66667 6.95831 2.94167 5.53331 4.63333 5.35831L5.525 5.26665L5.94167 4.47498C6.3249 3.72896 6.90656 3.10316 7.6226 2.66648C8.33865 2.22979 9.1613 1.99916 10 1.99998C12.1833 1.99998 14.0667 3.54998 14.4917 5.69165L14.7417 6.94165L16.0167 7.03331C16.6431 7.07545 17.2303 7.3533 17.6602 7.81097C18.09 8.26863 18.3305 8.87212 18.3333 9.49998C18.3333 10.875 17.2083 12 15.8333 12ZM8.33333 8.81665L6.59167 7.07498L5.41667 8.24998L8.33333 11.1666L13.3417 6.15831L12.1667 4.98331L8.33333 8.81665Z" fill="#A6A7B1"/>
</svg>
