<svg width="17" height="12" viewBox="0 0 17 12" fill="none" xmlns="http://www.w3.org/2000/svg">
<path d="M8.49081 1.875C9.86987 1.87041 11.2222 2.25509 12.3924 2.98479C13.5626 3.7145 14.5031 4.75962 15.1058 6C14.5038 7.24094 13.5635 8.28655 12.3931 9.01636C11.2228 9.74617 9.87005 10.1305 8.49081 10.125C7.11157 10.1305 5.75885 9.74617 4.5885 9.01636C3.41816 8.28655 2.47781 7.24094 1.87581 6C2.47853 4.75962 3.41904 3.7145 4.58922 2.98479C5.75941 2.25509 7.11176 1.87041 8.49081 1.875ZM8.49081 0.375C4.74081 0.375 1.53831 2.7075 0.240814 6C1.53831 9.2925 4.74081 11.625 8.49081 11.625C12.2408 11.625 15.4433 9.2925 16.7408 6C15.4433 2.7075 12.2408 0.375 8.49081 0.375ZM8.49081 4.125C8.9881 4.125 9.46501 4.32254 9.81664 4.67417C10.1683 5.02581 10.3658 5.50272 10.3658 6C10.3658 6.49728 10.1683 6.97419 9.81664 7.32583C9.46501 7.67746 8.9881 7.875 8.49081 7.875C7.99353 7.875 7.51662 7.67746 7.16499 7.32583C6.81336 6.97419 6.61581 6.49728 6.61581 6C6.61581 5.50272 6.81336 5.02581 7.16499 4.67417C7.51662 4.32254 7.99353 4.125 8.49081 4.125ZM8.49081 2.625C6.63081 2.625 5.11581 4.14 5.11581 6C5.11581 7.86 6.63081 9.375 8.49081 9.375C10.3508 9.375 11.8658 7.86 11.8658 6C11.8658 4.14 10.3508 2.625 8.49081 2.625Z" fill="#C8CAD7"/>
</svg>
