<svg width="12" height="14" viewBox="0 0 12 14" fill="none" xmlns="http://www.w3.org/2000/svg">
<path d="M12 4.33337V12.9954C12.0006 13.0829 11.984 13.1697 11.951 13.2509C11.9181 13.332 11.8695 13.4058 11.808 13.4682C11.7466 13.5305 11.6734 13.5801 11.5928 13.6142C11.5121 13.6482 11.4255 13.6661 11.338 13.6667H0.662C0.486542 13.6667 0.318261 13.5971 0.194131 13.473C0.070001 13.349 0.000176695 13.1808 0 13.0054L0 0.994707C0 0.636707 0.299333 0.333374 0.668 0.333374H7.998L12 4.33337ZM10.6667 5.00004H7.33333V1.66671H1.33333V12.3334H10.6667V5.00004Z" fill="#F5F5FA"/>
</svg>
