<svg width="16" height="16" viewBox="0 0 16 16" fill="none" xmlns="http://www.w3.org/2000/svg">
<path d="M7.99996 0.666626L14.3333 4.33329V11.6666L7.99996 15.3333L1.66663 11.6666V4.33329L7.99996 0.666626ZM7.99996 2.20729L2.99996 5.10196V10.898L7.99996 13.7926L13 10.898V5.10196L7.99996 2.20729ZM7.99996 10.6666C7.29272 10.6666 6.61444 10.3857 6.11434 9.88558C5.61424 9.38548 5.33329 8.7072 5.33329 7.99996C5.33329 7.29272 5.61424 6.61444 6.11434 6.11434C6.61444 5.61424 7.29272 5.33329 7.99996 5.33329C8.7072 5.33329 9.38548 5.61424 9.88558 6.11434C10.3857 6.61444 10.6666 7.29272 10.6666 7.99996C10.6666 8.7072 10.3857 9.38548 9.88558 9.88558C9.38548 10.3857 8.7072 10.6666 7.99996 10.6666ZM7.99996 9.33329C8.35358 9.33329 8.69272 9.19282 8.94277 8.94277C9.19282 8.69272 9.33329 8.35358 9.33329 7.99996C9.33329 7.64634 9.19282 7.3072 8.94277 7.05715C8.69272 6.8071 8.35358 6.66663 7.99996 6.66663C7.64634 6.66663 7.3072 6.8071 7.05715 7.05715C6.8071 7.3072 6.66663 7.64634 6.66663 7.99996C6.66663 8.35358 6.8071 8.69272 7.05715 8.94277C7.3072 9.19282 7.64634 9.33329 7.99996 9.33329Z" fill="#F5F5FA"/>
</svg>
