<svg width="16" height="14" viewBox="0 0 16 14" fill="none" xmlns="http://www.w3.org/2000/svg">
<path d="M12.6667 14H3.33341C3.1566 14 2.98703 13.9298 2.86201 13.8048C2.73699 13.6797 2.66675 13.5102 2.66675 13.3334V7.33336H0.666748L7.55141 1.07469C7.67415 0.963013 7.83414 0.901123 8.00008 0.901123C8.16603 0.901123 8.32601 0.963013 8.44875 1.07469L15.3334 7.33336H13.3334V13.3334C13.3334 13.5102 13.2632 13.6797 13.1382 13.8048C13.0131 13.9298 12.8436 14 12.6667 14ZM4.00008 12.6667H12.0001V6.10469L8.00008 2.46869L4.00008 6.10469V12.6667ZM8.00008 10C7.55805 10 7.13413 9.82443 6.82157 9.51187C6.50901 9.19931 6.33341 8.77539 6.33341 8.33336C6.33341 7.89133 6.50901 7.46741 6.82157 7.15485C7.13413 6.84229 7.55805 6.66669 8.00008 6.66669C8.44211 6.66669 8.86603 6.84229 9.17859 7.15485C9.49115 7.46741 9.66675 7.89133 9.66675 8.33336C9.66675 8.77539 9.49115 9.19931 9.17859 9.51187C8.86603 9.82443 8.44211 10 8.00008 10Z" fill="#F5F5FA"/>
</svg>
