<svg width="28" height="28" viewBox="0 0 28 28" fill="none" xmlns="http://www.w3.org/2000/svg">
<rect width="28" height="28" rx="14" fill="#373840"/>
<path d="M13.1933 15.0601C13.1933 14.6681 13.254 14.3321 13.3753 14.0521C13.506 13.7721 13.6647 13.5248 13.8513 13.3101C14.0473 13.0955 14.2527 12.8948 14.4673 12.7081C14.6913 12.5215 14.9013 12.3348 15.0973 12.1481C15.2933 11.9521 15.452 11.7421 15.5733 11.5181C15.6947 11.2848 15.7553 11.0141 15.7553 10.7061C15.7553 10.2021 15.5593 9.79145 15.1673 9.47412C14.7753 9.15679 14.22 8.99812 13.5013 8.99812C12.904 8.99812 12.386 9.09612 11.9473 9.29212C11.5087 9.47879 11.1353 9.75879 10.8273 10.1321L10.0853 9.57212C10.4587 9.10546 10.9393 8.74612 11.5273 8.49412C12.1153 8.24212 12.7967 8.11612 13.5713 8.11612C14.2247 8.11612 14.7893 8.21412 15.2653 8.41012C15.7507 8.60612 16.124 8.88612 16.3853 9.25012C16.656 9.61412 16.7913 10.0481 16.7913 10.5521C16.7913 10.9535 16.726 11.2988 16.5953 11.5881C16.474 11.8681 16.3153 12.1201 16.1193 12.3441C15.9327 12.5588 15.7273 12.7641 15.5033 12.9601C15.2887 13.1468 15.0833 13.3381 14.8873 13.5341C14.6913 13.7301 14.5327 13.9495 14.4113 14.1921C14.29 14.4348 14.2293 14.7241 14.2293 15.0601H13.1933ZM13.7113 18.0701C13.5153 18.0701 13.3427 18.0001 13.1933 17.8601C13.0533 17.7108 12.9833 17.5381 12.9833 17.3421C12.9833 17.1368 13.0533 16.9688 13.1933 16.8381C13.3427 16.6981 13.5153 16.6281 13.7113 16.6281C13.926 16.6281 14.1033 16.6981 14.2433 16.8381C14.3833 16.9688 14.4533 17.1368 14.4533 17.3421C14.4533 17.5381 14.3833 17.7108 14.2433 17.8601C14.1033 18.0001 13.926 18.0701 13.7113 18.0701Z" fill="#C8CAD7"/>
</svg>
