<svg width="16" height="16" viewBox="0 0 16 16" fill="none" xmlns="http://www.w3.org/2000/svg">
<path d="M5.74992 1.33337H1.58325C1.44518 1.33337 1.33325 1.4453 1.33325 1.58337V5.75004C1.33325 5.88811 1.44518 6.00004 1.58325 6.00004H5.74992C5.88799 6.00004 5.99992 5.88811 5.99992 5.75004V1.58337C5.99992 1.4453 5.88799 1.33337 5.74992 1.33337Z" stroke="#F5F5FA" stroke-miterlimit="10" stroke-linecap="square"/>
<path d="M14.4167 1.33337H10.25C10.1119 1.33337 10 1.4453 10 1.58337V5.75004C10 5.88811 10.1119 6.00004 10.25 6.00004H14.4167C14.5547 6.00004 14.6667 5.88811 14.6667 5.75004V1.58337C14.6667 1.4453 14.5547 1.33337 14.4167 1.33337Z" stroke="#F5F5FA" stroke-miterlimit="10" stroke-linecap="square"/>
<path d="M5.74992 10H1.58325C1.44518 10 1.33325 10.1119 1.33325 10.25V14.4167C1.33325 14.5547 1.44518 14.6667 1.58325 14.6667H5.74992C5.88799 14.6667 5.99992 14.5547 5.99992 14.4167V10.25C5.99992 10.1119 5.88799 10 5.74992 10Z" stroke="#F5F5FA" stroke-miterlimit="10" stroke-linecap="square"/>
<path d="M14.4167 10H10.25C10.1119 10 10 10.1119 10 10.25V14.4167C10 14.5547 10.1119 14.6667 10.25 14.6667H14.4167C14.5547 14.6667 14.6667 14.5547 14.6667 14.4167V10.25C14.6667 10.1119 14.5547 10 14.4167 10Z" stroke="#F5F5FA" stroke-miterlimit="10" stroke-linecap="square"/>
</svg>
